<svg xmlns="http://www.w3.org/2000/svg" width="300" height="300" viewBox="0 0 300 300">
  <rect width="300" height="300" fill="none"/>
  <g fill="white" opacity="0.06">
    <circle cx="30" cy="40" r="2"/>
    <circle cx="80" cy="20" r="1.5"/>
    <circle cx="140" cy="60" r="2.2"/>
    <circle cx="200" cy="30" r="1.8"/>
    <circle cx="260" cy="50" r="2.0"/>
    <circle cx="50" cy="120" r="1.6"/>
    <circle cx="110" cy="100" r="2.1"/>
    <circle cx="170" cy="130" r="1.7"/>
    <circle cx="230" cy="110" r="2.3"/>
    <circle cx="290" cy="90" r="1.9"/>
    <circle cx="40" cy="200" r="1.5"/>
    <circle cx="95" cy="180" r="2.4"/>
    <circle cx="150" cy="210" r="1.8"/>
    <circle cx="210" cy="195" r="2.2"/>
    <circle cx="265" cy="220" r="1.6"/>
    <circle cx="30" cy="260" r="2.0"/>
    <circle cx="85" cy="240" r="1.7"/>
    <circle cx="135" cy="275" r="2.3"/>
    <circle cx="190" cy="255" r="1.9"/>
    <circle cx="245" cy="270" r="2.1"/>
  </g>
</svg>